PathFileType  4	(X/Y/Z) C:\Users\antoi\Documents\MyRepositories\mobilecap\ResultsAnalysis
DataRate	CameraRate	NumFrames	NumMarkers	Units	OrigDataRate	OrigDataStartFrame	OrigNumFrames
100.0	100.0	4	51	mm	100.0	66	261
Frame#	Time	r_knee			r_shank_antsup			r_ankle			r_calc			r_5meta			r_toe			L_knee			L_shank_antsup			L_ankle			L_calc			L_5meta			L_toe			r_sh2			r_sh3			r_sh4			L_sh2			L_sh3			r_thigh1			r_thigh2			r_thigh3			r_thigh4			r_thigh5			L_thigh1			L_thigh2			L_thigh3			L_thigh4			r.ASIS			r.PSIS			L.ASIS			L.PSIS			C7			R_Shoulder			L_Shoulder			R_Sternum			L_Sternum			R_humerus			R_elbow_med			R_elbow_lat			R_forearm			R_wrist_radius			R_wrist_ulna			L_humerus			L_elbow_med			L_elbow_lat			L_forearm			L_wrist_radius			L_wrist_ulna			R_HJC			L_HJC			R_HJC_reg			L_HJC_reg			
		X1	Y1	Z1	X2	Y2	Z2	X3	Y3	Z3	X4	Y4	Z4	X5	Y5	Z5	X6	Y6	Z6	X7	Y7	Z7	X8	Y8	Z8	X9	Y9	Z9	X10	Y10	Z10	X11	Y11	Z11	X12	Y12	Z12	X13	Y13	Z13	X14	Y14	Z14	X15	Y15	Z15	X16	Y16	Z16	X17	Y17	Z17	X18	Y18	Z18	X19	Y19	Z19	X20	Y20	Z20	X21	Y21	Z21	X22	Y22	Z22	X23	Y23	Z23	X24	Y24	Z24	X25	Y25	Z25	X26	Y26	Z26	X27	Y27	Z27	X28	Y28	Z28	X29	Y29	Z29	X30	Y30	Z30	X31	Y31	Z31	X32	Y32	Z32	X33	Y33	Z33	X34	Y34	Z34	X35	Y35	Z35	X36	Y36	Z36	X37	Y37	Z37	X38	Y38	Z38	X39	Y39	Z39	X40	Y40	Z40	X41	Y41	Z41	X42	Y42	Z42	X43	Y43	Z43	X44	Y44	Z44	X45	Y45	Z45	X46	Y46	Z46	X47	Y47	Z47	X48	Y48	Z48	X49	Y49	Z49	X50	Y50	Z50	X51	Y51	Z51	

66	0.65000000	-1089.07096	818.67927	-423.04637	-1071.87426	716.18103	-436.96472	-1261.31036	427.20135	-466.05450	-1348.45024	381.84585	-513.77289	-1151.90588	356.95543	-425.72245	-1095.13931	385.48268	-490.36220	-1109.03412	815.61667	-727.78149	-1122.00630	725.95590	-745.80994	-1277.79360	428.93406	-678.38438	-1356.19581	380.15404	-616.84486	-1172.73161	359.99566	-719.45752	-1109.47040	387.93469	-660.43302	-1125.77306	617.99681	-415.68714	-1122.37409	752.28147	-393.44581	-1192.60982	659.89780	-387.42976	-1204.76064	762.90143	-739.99456	-1241.67603	647.12721	-729.47066	-1119.13100	1139.66922	-390.57051	-1076.87913	1040.77758	-403.16654	-1166.00824	990.45124	-384.12019	-1218.57538	1093.11575	-376.15297	-1111.44132	994.74332	-370.08493	-1113.34032	1112.12349	-735.52209	-1064.31329	980.90925	-724.43190	-1211.99898	1072.69335	-765.15796	-1172.92550	941.79547	-750.68111	-1123.37489	1303.98630	-434.69461	-1290.82762	1380.28415	-495.64728	-1131.79337	1301.80256	-678.31623	-1296.49745	1382.29716	-606.72643	-883.73292	1774.14480	-565.62003	-867.44625	1674.79477	-398.13870	-882.58925	1681.61968	-736.68042	-847.54402	1626.31448	-537.79012	-852.08753	1625.13967	-592.82750	-974.31291	1554.28791	-335.29549	-1175.26162	1476.00160	-370.93158	-1150.80022	1473.33619	-292.00604	-1236.77144	1326.16192	-260.92452	-1272.84461	1235.58050	-260.42739	-1301.01752	1271.18739	-247.81420	-981.20262	1597.36014	-816.52623	-1164.85668	1446.93684	-746.67479	-1150.81155	1448.91495	-828.01121	-1165.34851	1381.19462	-859.23071	-1250.07565	1222.71197	-875.81797	-1284.24624	1246.06758	-876.91257	-1239.85198	1223.36566	-447.88645	-1248.96727	1229.74740	-654.54791	-1207.09797	1247.33848	-465.57891	-1215.29734	1250.24883	-626.23627	
67	0.66000000	-1082.77100	815.32356	-422.01791	-1066.18386	711.89008	-438.27129	-1260.99931	426.92836	-466.16705	-1348.45148	381.62602	-513.63581	-1151.91948	356.70607	-425.67176	-1095.20723	385.14418	-490.34166	-1102.35897	812.09892	-728.06719	-1115.95819	722.72177	-746.02379	-1277.37806	428.59200	-677.99276	-1356.29617	380.39125	-616.31063	-1172.73389	359.88757	-719.46433	-1109.40561	387.56242	-660.32052	-1121.14039	614.51408	-416.36060	-1115.23302	748.60097	-392.63484	-1187.06983	657.51476	-387.15852	-1198.03466	761.18727	-739.75911	-1237.21551	646.10695	-729.15076	-1116.93586	1135.13774	-389.41198	-1073.16499	1036.82138	-402.20370	-1162.00901	985.68317	-383.73310	-1216.40830	1086.96386	-376.84421	-1107.58797	990.45707	-369.33170	-1111.14869	1108.28865	-736.48330	-1059.92520	977.79637	-725.57775	-1209.54580	1067.23877	-764.61697	-1169.50076	936.43171	-749.00532	-1121.76746	1298.31312	-434.35372	-1289.25483	1374.63523	-495.91267	-1130.69671	1295.91009	-678.10256	-1294.97161	1376.34077	-606.68793	-881.03089	1766.29661	-565.96173	-865.15933	1665.72274	-398.83138	-878.89163	1671.49128	-736.76013	-844.71481	1618.80568	-538.32433	-849.12939	1617.37499	-592.70369	-966.93308	1541.70731	-336.38528	-1164.62462	1453.78494	-368.22271	-1138.05711	1451.56050	-289.61387	-1216.27624	1300.08028	-258.88061	-1248.20333	1207.96096	-259.39508	-1277.48981	1241.92751	-244.62346	-973.50932	1582.53214	-817.29278	-1152.75291	1425.78981	-747.34054	-1135.70392	1426.10331	-829.20691	-1146.28737	1357.03534	-859.12168	-1222.58319	1194.34033	-874.25521	-1257.90601	1215.74391	-876.49306	-1238.39296	1217.78253	-447.56883	-1247.59870	1223.77875	-654.23722	-1205.71897	1241.82445	-465.05411	-1214.01570	1244.29977	-625.81254	
68	0.67000000	-1076.38107	811.99831	-420.81611	-1060.42379	707.50178	-439.16645	-1260.59292	426.59866	-466.35230	-1348.35863	381.45627	-513.60819	-1151.91600	356.47536	-425.67360	-1095.27506	384.80849	-490.44544	-1095.70428	808.28852	-728.14463	-1110.03475	719.11738	-745.74206	-1277.01067	428.26145	-677.57368	-1356.10164	380.26568	-616.27178	-1172.73337	359.75484	-719.48494	-1109.32537	387.08089	-660.12508	-1116.70413	611.01096	-417.08134	-1107.82213	744.90917	-391.55251	-1181.72477	654.76779	-387.14754	-1191.25680	759.26449	-739.28841	-1232.74445	645.00155	-728.69563	-1114.27049	1130.14120	-387.86576	-1069.28347	1032.41119	-401.13733	-1157.63327	980.52018	-383.25273	-1213.32714	1081.04173	-376.95750	-1103.61553	985.58676	-368.79156	-1108.44109	1104.01805	-737.58955	-1055.25696	974.22212	-726.80357	-1206.53154	1061.86324	-763.84166	-1164.03050	931.55195	-748.77625	-1119.89993	1292.70215	-434.26700	-1287.37969	1368.78826	-496.11999	-1128.60472	1289.58778	-678.26008	-1293.36346	1370.29265	-606.54483	-878.72742	1758.84582	-566.47495	-863.27166	1657.54350	-399.44976	-875.31402	1662.05160	-736.91784	-842.15588	1611.56360	-539.14028	-846.28877	1610.16671	-592.48307	-959.33591	1530.15605	-337.28876	-1152.70113	1431.31779	-365.58813	-1123.95115	1430.12004	-287.48757	-1193.19580	1274.17705	-256.95006	-1220.43153	1180.47189	-258.90703	-1250.91052	1212.53374	-241.86114	-965.07253	1567.91424	-817.81294	-1138.47510	1403.92286	-750.03639	-1119.14387	1403.49769	-830.10568	-1125.14971	1333.11720	-858.60070	-1192.10594	1166.49114	-872.25090	-1228.67887	1185.63206	-875.60641	-1236.44192	1212.06839	-447.30729	-1245.70546	1217.55817	-653.98725	-1203.56609	1235.95611	-464.70336	-1212.28655	1238.14823	-625.60477	
69	0.68000000	-1069.49552	808.00512	-420.71416	-1054.39077	703.15519	-439.45917	-1260.08557	426.36877	-466.53828	-1348.25587	381.42071	-513.72102	-1151.89922	356.30899	-425.68069	-1095.32860	384.46016	-490.59976	-1089.04238	804.21278	-728.06612	-1104.16151	715.38453	-745.34622	-1276.61424	427.90234	-677.17737	-1355.74490	379.66127	-616.88990	-1172.76802	359.63261	-719.52188	-1109.29678	386.62522	-659.95857	-1112.30837	607.55872	-417.76806	-1100.74766	741.22046	-391.49270	-1176.52291	652.17321	-387.10978	-1184.48085	757.13771	-738.86498	-1228.14911	643.75393	-728.40332	-1111.11493	1124.93019	-386.65418	-1065.48766	1027.75697	-400.23633	-1152.92561	974.70659	-383.58055	-1209.31377	1075.23882	-376.57656	-1099.31410	980.43693	-368.35746	-1105.12861	1099.37101	-738.57404	-1050.31746	970.27794	-727.90923	-1203.02584	1056.37828	-762.97859	-1156.75382	927.23095	-749.82339	-1117.80543	1287.04635	-434.30045	-1285.30398	1362.75632	-496.06626	-1126.20116	1283.37945	-678.66277	-1291.62929	1364.07711	-606.20648	-876.85354	1751.86362	-567.07066	-861.72118	1650.37095	-400.21135	-871.87806	1653.33794	-736.94080	-839.79253	1604.69065	-539.77302	-843.48722	1603.48424	-592.23891	-951.19020	1519.92228	-337.81880	-1138.96071	1409.16139	-363.36725	-1108.33722	1409.76825	-285.62400	-1167.34660	1249.39663	-255.37492	-1189.29194	1154.08621	-258.89256	-1221.05382	1183.99346	-239.92139	-955.87098	1554.05266	-817.81015	-1122.14549	1381.98751	-753.29193	-1100.96517	1381.67893	-830.54100	-1101.80037	1310.37762	-857.95639	-1158.62833	1139.85508	-869.64492	-1196.40198	1156.37899	-873.90025	-1234.04389	1206.13336	-447.12792	-1243.52253	1211.32317	-653.80608	-1201.06116	1230.01721	-464.45581	-1210.31376	1231.94910	-625.57144	
